rat_walk_bone_smooth
version=1
nRows=34
nColumns=15
inDegrees=yes
endheader
time	sacrum_pitch	sacrum_roll	sacrum_yaw	sacrum_x	sacrum_y	sacrum_z	sacroiliac_flx	hip_flx	hip_add	hip_int	knee_flx	ankle_flx	ankle_add	ankle_int
0.193500	22.719663	0.000000	0.000000	0.000000	0.672500	0.000000	3.700000	10.346024	-10.000000	0.000000	-117.774141	-0.894220	-5.000000	0.000000
0.195435	22.807911	0.000000	0.000000	0.000000	0.672500	0.000000	3.700000	10.023335	-10.000000	0.000000	-117.845313	-1.262862	-5.000000	0.000000
0.197370	22.894211	0.000000	0.000000	0.000000	0.672500	0.000000	3.700000	9.742864	-10.000000	0.000000	-117.942476	-1.597416	-5.000000	0.000000
0.199305	22.978298	0.000000	0.000000	0.000000	0.672500	0.000000	3.700000	9.505884	-10.000000	0.000000	-118.066392	-1.896385	-5.000000	0.000000
0.201240	23.059905	0.000000	0.000000	0.000000	0.672500	0.000000	3.700000	9.313594	-10.000000	0.000000	-118.217779	-2.158411	-5.000000	0.000000
0.203175	23.138767	0.000000	0.000000	0.000000	0.672500	0.000000	3.700000	9.167112	-10.000000	0.000000	-118.397303	-2.382267	-5.000000	0.000000
0.205110	23.214619	0.000000	0.000000	0.000000	0.672500	0.000000	3.700000	9.067461	-10.000000	0.000000	-118.605567	-2.566853	-5.000000	0.000000
0.207045	23.287194	0.000000	0.000000	0.000000	0.672500	0.000000	3.700000	9.015555	-10.000000	0.000000	-118.843099	-2.711184	-5.000000	0.000000
0.208980	23.356226	0.000000	0.000000	0.000000	0.672500	0.000000	3.700000	9.012189	-10.000000	0.000000	-119.110340	-2.814379	-5.000000	0.000000
0.210915	23.421450	0.000000	0.000000	0.000000	0.672500	0.000000	3.700000	9.058024	-10.000000	0.000000	-119.407630	-2.875649	-5.000000	0.000000
0.212850	23.482601	0.000000	0.000000	0.000000	0.672500	0.000000	3.700000	9.153576	-10.000000	0.000000	-119.735199	-2.894286	-5.000000	0.000000
0.214785	23.539411	0.000000	0.000000	0.000000	0.672500	0.000000	3.700000	9.299205	-10.000000	0.000000	-120.093146	-2.869648	-5.000000	0.000000
0.216720	23.591616	0.000000	0.000000	0.000000	0.672500	0.000000	3.700000	9.495107	-10.000000	0.000000	-120.481433	-2.801145	-5.000000	0.000000
0.218655	23.638949	0.000000	0.000000	0.000000	0.672500	0.000000	3.700000	9.741304	-10.000000	0.000000	-120.899865	-2.688233	-5.000000	0.000000
0.220590	23.681146	0.000000	0.000000	0.000000	0.672500	0.000000	3.700000	10.037639	-10.000000	0.000000	-121.348079	-2.530394	-5.000000	0.000000
0.222525	23.717939	0.000000	0.000000	0.000000	0.672500	0.000000	3.700000	10.383770	-10.000000	0.000000	-121.825532	-2.327138	-5.000000	0.000000
0.224460	23.749064	0.000000	0.000000	0.000000	0.672500	0.000000	3.700000	10.779169	-10.000000	0.000000	-122.331484	-2.077985	-5.000000	0.000000
0.226395	23.774254	0.000000	0.000000	0.000000	0.672500	0.000000	3.700000	11.223125	-10.000000	0.000000	-122.864995	-1.782473	-5.000000	0.000000
0.228330	23.793243	0.000000	0.000000	0.000000	0.672500	0.000000	3.700000	11.714744	-10.000000	0.000000	-123.424911	-1.440147	-5.000000	0.000000
0.230265	23.805767	0.000000	0.000000	0.000000	0.672500	0.000000	3.700000	12.252959	-10.000000	0.000000	-124.009863	-1.050575	-5.000000	0.000000
0.232200	23.811559	0.000000	0.000000	0.000000	0.672500	0.000000	3.700000	12.836540	-10.000000	0.000000	-124.618263	-0.613350	-5.000000	0.000000
0.234135	23.810353	0.000000	0.000000	0.000000	0.672500	0.000000	3.700000	13.464103	-10.000000	0.000000	-125.248305	-0.128111	-5.000000	0.000000
0.236070	23.801883	0.000000	0.000000	0.000000	0.672500	0.000000	3.700000	14.134133	-10.000000	0.000000	-125.897969	0.405431	-5.000000	0.000000
0.238005	23.785884	0.000000	0.000000	0.000000	0.672500	0.000000	3.700000	14.844994	-10.000000	0.000000	-126.565029	0.987466	-5.000000	0.000000
0.239940	23.762091	0.000000	0.000000	0.000000	0.672500	0.000000	3.700000	15.594954	-10.000000	0.000000	-127.247058	1.618044	-5.000000	0.000000
0.241875	23.730236	0.000000	0.000000	0.000000	0.672500	0.000000	3.700000	16.382208	-10.000000	0.000000	-127.941448	2.297032	-5.000000	0.000000
0.243810	23.690054	0.000000	0.000000	0.000000	0.672500	0.000000	3.700000	17.204897	-10.000000	0.000000	-128.645415	3.024070	-5.000000	0.000000
0.245745	23.641281	0.000000	0.000000	0.000000	0.672500	0.000000	3.700000	18.061136	-10.000000	0.000000	-129.356022	3.798519	-5.000000	0.000000
0.247680	23.583649	0.000000	0.000000	0.000000	0.672500	0.000000	3.700000	18.949033	-10.000000	0.000000	-130.070189	4.619418	-5.000000	0.000000
0.249615	23.516893	0.000000	0.000000	0.000000	0.672500	0.000000	3.700000	19.866710	-10.000000	0.000000	-130.784716	5.485435	-5.000000	0.000000
0.251550	23.440757	0.000000	0.000000	0.000000	0.672500	0.000000	3.700000	20.812315	-10.000000	0.000000	-131.496289	6.394825	-5.000000	0.000000
0.253485	23.355386	0.000000	0.000000	0.000000	0.672500	0.000000	3.700000	21.784039	-10.000000	0.000000	-132.201505	7.345399	-5.000000	0.000000
0.255420	23.261445	0.000000	0.000000	0.000000	0.672500	0.000000	3.700000	22.780110	-10.000000	0.000000	-132.896873	8.334491	-5.000000	0.000000
0.257355	23.159633	0.000000	0.000000	0.000000	0.672500	0.000000	3.700000	23.798798	-10.000000	0.000000	-133.578836	9.358940	-5.000000	0.000000
